<svg xmlns="http://www.w3.org/2000/svg" version="1.1" xmlns:xlink="http://www.w3.org/1999/xlink" xmlns:svgjs="http://svgjs.com/svgjs" width="1440" height="560" preserveAspectRatio="none" viewBox="0 0 1440 560"><g mask="url(&quot;#SvgjsMask1039&quot;)" fill="none"><rect width="1440" height="560" x="0" y="0" fill="#0e2a47"></rect><path d="M252.92682987882995-74.69786894083943L211.1411408305513 53.9052583325721 339.74426810396284 95.69094738085074 381.5299571522415-32.91217989256077z" fill="rgba(28, 83, 142, 0.4)" class="triangle-float3"></path><path d="M554.2213327477518 172.99893605825912L489.42314200918736 118.62679810857463 440.2640304539429 243.01015319126356z" fill="rgba(28, 83, 142, 0.4)" class="triangle-float3"></path><path d="M1368.8859865065697 86.6104013650531L1328.6583539172682 4.131531729567882 1246.179484281783 44.3591643188693 1286.4071168710846 126.8380339543545z" fill="rgba(28, 83, 142, 0.4)" class="triangle-float2"></path><path d="M878.634,329.153C917.578,327.743,944.135,294.288,963.268,260.338C981.949,227.19,995.541,187.911,976.942,154.717C958.03,120.964,917.31,108.264,878.634,109.292C841.899,110.268,808.094,128.327,788.981,159.714C769.034,192.471,764.736,232.979,782.673,266.878C801.787,303.003,837.791,330.632,878.634,329.153" fill="rgba(28, 83, 142, 0.4)" class="triangle-float1"></path><path d="M314.19737704866816 594.4004730604706L322.7103955391486 431.9624036184553 151.75930760665284 585.8874545699903z" fill="rgba(28, 83, 142, 0.4)" class="triangle-float2"></path><path d="M1286.1054415789938 362.630904256622L1310.0166584195995 266.7282516546798 1154.2070710963835 278.81275269474247z" fill="rgba(28, 83, 142, 0.4)" class="triangle-float2"></path><path d="M725.509,405.162C748.98,405.547,773.751,399.593,786.033,379.588C798.788,358.812,796.45,331.79,783.064,311.415C770.835,292.801,747.778,287.093,725.509,287.464C704.022,287.822,682.684,295.126,671.178,313.276C658.851,332.721,656.613,357.838,668.331,377.656C679.868,397.168,702.844,404.79,725.509,405.162" fill="rgba(28, 83, 142, 0.4)" class="triangle-float2"></path><path d="M299.12,498.919C329.878,498.967,354.645,475.21,368.274,447.636C380.399,423.106,376.082,394.871,362.206,371.287C348.557,348.089,326.036,330.019,299.12,330.102C272.327,330.185,250.255,348.561,236.704,371.674C222.968,395.102,218.376,423.04,230.336,447.423C243.855,474.984,268.422,498.871,299.12,498.919" fill="rgba(28, 83, 142, 0.4)" class="triangle-float2"></path><path d="M1174.2959886714134 378.0649107596514L1264.6618542954036 339.7068765572863 1226.3038200930387 249.341010933296 1135.9379544690482 287.6990451356611z" fill="rgba(28, 83, 142, 0.4)" class="triangle-float2"></path><path d="M979.9606569286428 352.1265074919254L1045.1702625598566 277.1114373264359 900.0428544960155 216.80456396236005z" fill="rgba(28, 83, 142, 0.4)" class="triangle-float1"></path></g><defs><mask id="SvgjsMask1039"><rect width="1440" height="560" fill="#ffffff"></rect></mask><style>
            @keyframes float1 {
                0%{transform: translate(0, 0)}
                50%{transform: translate(-10px, 0)}
                100%{transform: translate(0, 0)}
            }

            .triangle-float1 {
                animation: float1 5s infinite;
            }

            @keyframes float2 {
                0%{transform: translate(0, 0)}
                50%{transform: translate(-5px, -5px)}
                100%{transform: translate(0, 0)}
            }

            .triangle-float2 {
                animation: float2 4s infinite;
            }

            @keyframes float3 {
                0%{transform: translate(0, 0)}
                50%{transform: translate(0, -10px)}
                100%{transform: translate(0, 0)}
            }

            .triangle-float3 {
                animation: float3 6s infinite;
            }
        </style></defs></svg>